# File created by Blade
# Date/Time:  Fri Jan 16 19:49:56 2015
# Frame Rate: 120.000 fps
#------------------------------------------------------
:FULLY-SPECIFIED
:DEGREES
238
root 19.800894 35.726239 -19.512501 -164.153392 1.943800 -178.557260
Spine 18.099589 -1.309861 -2.762419
Head 23.252153 5.167260 3.958036
LeftShoulder -20.781157 0.089482 7.221651
LeftArm -53.622025 22.998061 -110.712114
LeftForeArm 1.749692 -0.000000 2.369605
LeftHand -2.334539 -0.000000 -45.944521
LeftHandThumb1 -26.253704 0.000000 33.147579
RightShoulder -26.609928 -36.660020 6.235029
RightArm -12.367646 -37.499889 90.471130
RightForeArm -24.710227 -0.000000 11.538447
RightHand 4.817522 -0.000000 45.549242
RightHandThumb1 -24.326973 -0.000000 -32.862282
LeftUpLeg -9.687670 9.928292 2.210229
LeftLeg -7.099226 -0.000000 0.000000
LeftFoot -15.903973 31.281194 -13.496351
LeftToeBase 24.446134 -0.000000 -0.000000
RightUpLeg -11.237413 -7.198164 -1.012605
RightLeg -3.672510 -0.000000 0.000000
RightFoot -16.240181 -17.654576 19.881038
RightToeBase 25.124534 -0.000000 -0.000000
239
root 19.805623 35.737674 -19.411194 -163.728794 1.965341 -178.583593
Spine 18.752914 -1.189185 -2.869107
Head 22.799668 5.041279 3.898679
LeftShoulder -20.842526 0.424914 7.243419
LeftArm -53.768737 22.680774 -110.320385
LeftForeArm 2.307744 -0.000000 2.280820
LeftHand -2.244787 -0.000000 -45.967480
LeftHandThumb1 -26.253704 0.000000 33.147579
RightShoulder -26.904958 -37.102988 6.257168
RightArm -12.481603 -37.166272 90.318235
RightForeArm -25.214863 -0.000000 11.494596
RightHand 4.841469 -0.000000 45.660706
RightHandThumb1 -24.326973 -0.000000 -32.862282
LeftUpLeg -10.252694 9.921311 2.128159
LeftLeg -7.135288 -0.000000 0.000000
LeftFoot -15.613587 31.186892 -13.480353
LeftToeBase 24.266967 -0.000000 -0.000000
RightUpLeg -11.794973 -7.258580 -0.977549
RightLeg -3.725096 -0.000000 0.000000
RightFoot -15.965934 -17.446839 19.859605
RightToeBase 25.166233 -0.000000 -0.000000
240
root 19.807982 35.745980 -19.306063 -163.230050 1.993603 -178.616425
Spine 19.328753 -1.089513 -2.970653
Head 22.315538 4.953536 3.811876
LeftShoulder -20.954138 0.820518 7.262001
LeftArm -53.985820 22.530702 -110.116772
LeftForeArm 2.609245 -0.000000 2.224653
LeftHand -2.361682 0.000000 -45.817407
LeftHandThumb1 -26.253704 0.000000 33.147579
RightShoulder -27.166546 -37.529647 6.246750
RightArm -12.638821 -36.933124 90.200729
RightForeArm -25.505370 -0.000000 11.442919
RightHand 4.803319 -0.000000 45.663578
RightHandThumb1 -24.326973 -0.000000 -32.862282
LeftUpLeg -10.919004 9.958149 2.006824
LeftLeg -7.145284 -0.000000 0.000000
LeftFoot -15.338868 31.107168 -13.391042
LeftToeBase 24.266422 -0.000000 -0.000000
RightUpLeg -12.413339 -7.263705 -0.934959
RightLeg -3.827188 -0.000000 0.000000
RightFoot -15.812880 -17.339234 20.022212
RightToeBase 25.302766 -0.000000 -0.000000
241
root 19.812493 35.754188 -19.201786 -162.756043 2.037046 -178.644205
Spine 19.947956 -0.912830 -3.066115
Head 21.832354 4.812061 3.707354
LeftShoulder -21.008960 1.280088 7.254637
LeftArm -54.040857 22.312130 -109.744154
LeftForeArm 3.005215 -0.000000 2.143140
LeftHand -2.404113 0.000000 -45.819490
LeftHandThumb1 -26.253704 0.000000 33.147579
RightShoulder -27.491588 -37.939767 6.321544
RightArm -12.813576 -36.752971 90.079525
RightForeArm -25.712918 -0.000000 11.405614
RightHand 4.785222 -0.000000 45.519664
RightHandThumb1 -24.326973 -0.000000 -32.862282
LeftUpLeg -11.501463 9.889564 1.926693
LeftLeg -7.248466 -0.000000 0.000000
LeftFoot -15.048194 31.144241 -13.339771
LeftToeBase 24.220317 -0.000000 -0.000000
RightUpLeg -13.011109 -7.291251 -0.892065
RightLeg -3.917124 -0.000000 0.000000
RightFoot -15.623376 -17.167545 20.128657
RightToeBase 25.376656 -0.000000 -0.000000
242
root 19.818801 35.759473 -19.091298 -162.253386 2.075168 -178.657978
Spine 20.550119 -0.799385 -3.167453
Head 21.329178 4.721700 3.616955
LeftShoulder -21.099254 1.684840 7.304412
LeftArm -54.204095 22.064215 -109.471672
LeftForeArm 3.463254 0.000000 2.106017
LeftHand -2.428793 -0.000000 -45.717072
LeftHandThumb1 -26.253704 0.000000 33.147579
RightShoulder -27.687887 -38.361191 6.298570
RightArm -12.927352 -36.275981 89.952911
RightForeArm -26.159832 0.000000 11.265013
RightHand 4.771916 -0.000000 45.751755
RightHandThumb1 -24.326973 -0.000000 -32.862282
LeftUpLeg -12.151250 9.920972 1.833199
LeftLeg -7.307657 -0.000000 0.000000
LeftFoot -14.747530 31.082355 -13.214893
LeftToeBase 24.162823 -0.000000 -0.000000
RightUpLeg -13.628053 -7.252295 -0.854734
RightLeg -4.029726 -0.000000 0.000000
RightFoot -15.383058 -17.016428 20.149625
RightToeBase 25.336458 -0.000000 -0.000000
243
root 19.824695 35.764170 -18.980471 -161.764735 2.063319 -178.692207
Spine 21.199641 -0.713388 -3.274435
Head 20.771800 4.629547 3.536688
LeftShoulder -21.177798 2.111108 7.352832
LeftArm -54.254624 21.790539 -109.115551
LeftForeArm 3.981921 -0.000000 1.994446
LeftHand -2.432792 0.000000 -45.603788
LeftHandThumb1 -26.253704 0.000000 33.147579
RightShoulder -27.896203 -38.696694 6.286907
RightArm -13.170243 -35.958829 89.875834
RightForeArm -26.630211 -0.000000 11.229751
RightHand 4.811097 -0.000000 45.877416
RightHandThumb1 -24.326973 -0.000000 -32.862282
LeftUpLeg -12.772202 9.785093 1.763656
LeftLeg -7.420672 -0.000000 0.000000
LeftFoot -14.493382 31.162155 -13.210856
LeftToeBase 24.156405 -0.000000 -0.000000
RightUpLeg -14.214833 -7.325347 -0.797773
RightLeg -4.174627 -0.000000 0.000000
RightFoot -15.126993 -16.870564 20.127944
RightToeBase 25.329802 -0.000000 -0.000000
244
root 19.831356 35.769004 -18.868159 -161.287741 2.116968 -178.722776
Spine 21.866076 -0.507704 -3.381437
Head 20.236353 4.472857 3.453058
LeftShoulder -21.219844 2.468220 7.460089
LeftArm -54.428318 21.619487 -108.961135
LeftForeArm 4.434106 -0.000000 1.890233
LeftHand -2.433614 -0.000000 -45.521454
LeftHandThumb1 -26.253704 0.000000 33.147579
RightShoulder -28.165864 -39.133420 6.365933
RightArm -13.264648 -35.698952 89.760227
RightForeArm -27.014952 -0.000000 11.178462
RightHand 4.739869 -0.000000 45.995935
RightHandThumb1 -24.326973 -0.000000 -32.862282
LeftUpLeg -13.376341 9.767293 1.689707
LeftLeg -7.505678 -0.000000 0.000000
LeftFoot -14.197641 31.046730 -13.134652
LeftToeBase 24.103844 -0.000000 -0.000000
RightUpLeg -14.782359 -7.216460 -0.796157
RightLeg -4.342658 -0.000000 0.000000
RightFoot -14.826115 -16.809187 20.046253
RightToeBase 25.204863 -0.000000 -0.000000
245
root 19.840094 35.772277 -18.750584 -160.759014 2.127090 -178.709597
Spine 22.473912 -0.386896 -3.452758
Head 19.714125 4.369484 3.387155
LeftShoulder -21.214931 2.726397 7.532310
LeftArm -54.624973 21.169064 -108.535745
LeftForeArm 5.031401 -0.000000 1.765244
LeftHand -2.387111 0.000000 -45.584431
LeftHandThumb1 -26.253704 0.000000 33.147579
RightShoulder -28.233117 -39.381538 6.217558
RightArm -13.654903 -35.514719 89.852371
RightForeArm -27.377113 -0.000000 11.072337
RightHand 4.782575 -0.000000 46.015011
RightHandThumb1 -24.326973 -0.000000 -32.862282
LeftUpLeg -14.019990 9.622703 1.720539
LeftLeg -7.594841 -0.000000 0.000000
LeftFoot -13.874630 30.954399 -12.996833
LeftToeBase 24.069323 -0.000000 -0.000000
RightUpLeg -15.405512 -7.095224 -0.754159
RightLeg -4.500879 -0.000000 0.000000
RightFoot -14.547147 -16.733326 20.070007
RightToeBase 25.147721 -0.000000 -0.000000
246
root 19.847086 35.775272 -18.632906 -160.246331 2.159676 -178.714094
Spine 23.128092 -0.354636 -3.564519
Head 19.159795 4.346497 3.220115
LeftShoulder -21.358719 3.127556 7.542157
LeftArm -54.855988 21.119604 -108.538459
LeftForeArm 5.142329 -0.000000 1.718435
LeftHand -2.448846 0.000000 -45.506453
LeftHandThumb1 -26.253704 0.000000 33.147579
RightShoulder -28.295677 -39.790365 6.108641
RightArm -13.759612 -35.360388 89.768348
RightForeArm -27.672498 -0.000000 10.959558
RightHand 4.743231 -0.000000 46.090842
RightHandThumb1 -24.326973 -0.000000 -32.862282
LeftUpLeg -14.674749 9.543327 1.702366
LeftLeg -7.644370 -0.000000 0.000000
LeftFoot -13.631128 30.860755 -12.933694
LeftToeBase 24.123201 -0.000000 -0.000000
RightUpLeg -16.020326 -7.003132 -0.720447
RightLeg -4.663390 -0.000000 0.000000
RightFoot -14.278676 -16.671743 20.062763
RightToeBase 25.122521 -0.000000 -0.000000
247
root 19.854200 35.772969 -18.507257 -159.671611 2.191522 -178.713446
Spine 23.733611 -0.168082 -3.606235
Head 18.547424 4.250979 3.103315
LeftShoulder -21.379651 3.525407 7.563810
LeftArm -55.054758 21.071007 -108.451327
LeftForeArm 5.223008 -0.000000 1.647504
LeftHand -2.404227 -0.000000 -45.542987
LeftHandThumb1 -26.253704 0.000000 33.147579
RightShoulder -28.580786 -40.157387 6.112895
RightArm -13.886009 -35.223441 89.698846
RightForeArm -27.976298 -0.000000 10.836890
RightHand 4.752237 0.000000 46.118217
RightHandThumb1 -24.326973 -0.000000 -32.862282
LeftUpLeg -15.388601 9.396274 1.694199
LeftLeg -7.741272 -0.000000 0.000000
LeftFoot -13.406675 30.911337 -12.877720
LeftToeBase 24.162860 -0.000000 -0.000000
RightUpLeg -16.700009 -6.834789 -0.717687
RightLeg -4.824822 -0.000000 0.000000
RightFoot -14.010345 -16.628078 19.983542
RightToeBase 25.146167 -0.000000 -0.000000
